<svg width="19" height="19" viewBox="0 0 19 19" fill="none" xmlns="http://www.w3.org/2000/svg">
<path d="M4.92812 3.80878C4.61895 3.49961 4.1177 3.49961 3.80853 3.80878C3.49937 4.11795 3.49937 4.6192 3.80853 4.92837L8.38018 9.5L3.80858 14.0716C3.49942 14.3808 3.49942 14.8821 3.80858 15.1912C4.11775 15.5004 4.619 15.5004 4.92816 15.1912L9.49976 10.6196L14.0714 15.1912C14.3805 15.5004 14.8818 15.5004 15.191 15.1912C15.5001 14.8821 15.5001 14.3808 15.191 14.0716L10.6193 9.5L15.191 4.92837C15.5002 4.6192 15.5002 4.11795 15.191 3.80878C14.8819 3.49961 14.3806 3.49961 14.0715 3.80878L9.49976 8.38043L4.92812 3.80878Z" fill="#DDC7A1"/>
</svg>
