<svg width="137" height="136" viewBox="0 0 137 136" fill="none" xmlns="http://www.w3.org/2000/svg">
<g clip-path="url(#clip0_22_54)">
<path d="M34.9181 16.9918C40.4621 16.7629 46.0088 16.5978 51.5559 16.4608C56.1885 16.3129 56.1885 16.3129 60.9147 16.1621C63.5504 16.4359 66.1861 16.7097 68.9017 16.9918C70.7708 19.7954 72.6399 22.5991 74.5657 25.4877C82.4176 26.575 89.6975 27.1966 97.5754 27.4347C99.711 27.5314 101.847 27.6282 104.047 27.7278C109.322 27.9615 114.6 28.1453 119.877 28.3197C123.237 38.399 123.123 47.5718 123.063 58.0553C123.08 60.9302 123.08 60.9302 123.096 63.8631C123.079 72.6138 122.665 79.4276 119.877 87.791C115.204 87.791 110.532 87.791 105.717 87.791C105.776 91.354 105.834 94.917 105.894 98.5879C106.026 106.597 105.482 111.153 102.885 118.943C74.8488 118.943 46.8124 118.943 17.9263 118.943C17.9263 95.5789 17.9263 72.2152 17.9263 48.1434C23.5336 48.1434 29.1409 48.1434 34.9181 48.1434C34.9181 37.8634 34.9181 27.5834 34.9181 16.9918Z" fill="#E78A4E"/>
<path d="M34.9181 16.9918C40.4621 16.7629 46.0088 16.5978 51.5559 16.4608C56.1885 16.3129 56.1885 16.3129 60.9147 16.1621C63.5504 16.4359 66.1861 16.7097 68.9017 16.9918C70.7708 19.7954 72.6399 22.5991 74.5657 25.4877C82.4176 26.575 89.6975 27.1966 97.5754 27.4347C99.711 27.5314 101.847 27.6282 104.047 27.7278C109.322 27.9615 114.6 28.1453 119.877 28.3197C123.237 38.399 123.123 47.5718 123.063 58.0553C123.08 60.9302 123.08 60.9302 123.096 63.8631C123.079 72.6138 122.665 79.4276 119.877 87.791C115.204 87.791 110.532 87.791 105.717 87.791C105.717 95.2674 105.717 102.744 105.717 110.447C104.783 110.447 103.848 110.447 102.885 110.447C101.951 94.5594 101.016 78.6721 100.053 62.3033C72.9514 62.3033 45.8495 62.3033 17.9263 62.3033C17.9263 57.6305 17.9263 52.9578 17.9263 48.1434C23.5336 48.1434 29.1409 48.1434 34.9181 48.1434C34.9181 37.8634 34.9181 27.5834 34.9181 16.9918Z" fill="#E78A4E"/>
<path d="M34.918 16.9918C46.1326 16.9918 57.3472 16.9918 68.9016 16.9918C70.7707 20.73 72.6398 24.4682 74.5655 28.3197C61.4818 29.2542 48.3981 30.1888 34.918 31.1517C34.918 26.4789 34.918 21.8062 34.918 16.9918Z" fill="#E78A4E"/>
<path d="M17.9263 48.1434C28.2063 48.1434 38.4864 48.1434 49.0779 48.1434C50.947 51.8816 52.8161 55.6198 54.7419 59.4713C36.5181 60.8731 36.5181 60.8731 17.9263 62.3033C17.9263 57.6305 17.9263 52.9578 17.9263 48.1434Z" fill="#E78A4E"/>
</g>
<defs>
<clipPath id="clip0_22_54">
<rect width="135.935" height="135.935" fill="white" transform="translate(0.93457)"/>
</clipPath>
</defs>
</svg>
