<svg width="137" height="138" viewBox="0 0 137 138" fill="none" xmlns="http://www.w3.org/2000/svg">
<path d="M47.3611 7.82205C49.8782 7.80977 49.8782 7.80977 52.4461 7.79723C55.9871 7.79141 59.5281 7.80714 63.0688 7.84296C68.4824 7.8888 73.8899 7.84337 79.3033 7.78861C82.7483 7.79426 86.1934 7.80524 89.6385 7.82205C91.253 7.80472 92.8676 7.78739 94.5312 7.76953C101.381 7.89159 106.32 8.56036 112.328 11.9319C117.514 20.8089 116.815 29.497 116.731 39.597C116.739 41.7501 116.747 43.9033 116.756 46.1218C116.761 50.6705 116.746 55.2192 116.71 59.7677C116.664 66.7313 116.709 73.6901 116.764 80.6535C116.759 85.0741 116.748 89.4947 116.731 93.9153C116.748 95.9981 116.765 98.081 116.783 100.227C116.588 114.288 116.588 114.288 112.328 121.58C104.868 125.767 97.9726 125.78 89.6385 125.69C87.9604 125.698 86.2823 125.707 84.5534 125.715C81.0125 125.721 77.4715 125.705 73.9308 125.669C68.5172 125.623 63.1097 125.669 57.6963 125.724C54.2512 125.718 50.8062 125.707 47.3611 125.69C45.7465 125.708 44.1319 125.725 42.4684 125.743C35.6189 125.621 30.6794 124.952 24.6713 121.58C19.4859 112.703 20.1848 104.015 20.2688 93.9153C20.2606 91.7621 20.2524 89.6089 20.244 87.3905C20.2382 82.8418 20.2539 78.2931 20.2897 73.7445C20.3356 66.781 20.2902 59.8222 20.2354 52.8588C20.241 48.4382 20.252 44.0176 20.2688 39.597C20.2515 37.5141 20.2342 35.4313 20.2163 33.2854C20.4116 19.2241 20.4116 19.2241 24.6713 11.9319C32.1313 7.74558 39.027 7.73259 47.3611 7.82205Z" fill="#F8F8F9"/>
<path d="M47.3611 7.82205C49.8782 7.80977 49.8782 7.80977 52.4461 7.79723C55.9871 7.79141 59.5281 7.80714 63.0688 7.84296C68.4824 7.8888 73.8899 7.84337 79.3033 7.78861C82.7483 7.79426 86.1934 7.80524 89.6385 7.82205C91.253 7.80472 92.8676 7.78739 94.5312 7.76953C101.381 7.89159 106.32 8.56036 112.328 11.9319C117.514 20.8089 116.815 29.497 116.731 39.597C116.739 41.7502 116.747 43.9033 116.756 46.1218C116.761 50.6705 116.746 55.2192 116.71 59.7677C116.664 66.7313 116.709 73.6901 116.764 80.6535C116.759 85.0741 116.748 89.4947 116.731 93.9153C116.748 95.9981 116.765 98.081 116.783 100.227C116.588 114.288 116.588 114.288 112.328 121.58C104.868 125.767 97.9726 125.78 89.6385 125.69C87.9604 125.698 86.2823 125.707 84.5534 125.715C81.0125 125.721 77.4715 125.705 73.9308 125.669C68.5172 125.623 63.1097 125.669 57.6963 125.724C54.2512 125.718 50.8062 125.707 47.3611 125.69C45.7465 125.708 44.1319 125.725 42.4684 125.743C35.6189 125.621 30.6794 124.952 24.6713 121.58C19.4859 112.703 20.1848 104.015 20.2688 93.9153C20.2606 91.7621 20.2524 89.6089 20.244 87.3905C20.2382 82.8418 20.2539 78.2931 20.2897 73.7445C20.3356 66.781 20.2902 59.8222 20.2354 52.8588C20.241 48.4382 20.252 44.0176 20.2688 39.597C20.2515 37.5141 20.2342 35.4313 20.2163 33.2854C20.4116 19.2241 20.4116 19.2241 24.6713 11.9319C32.1313 7.74558 39.027 7.73259 47.3611 7.82205ZM27.8279 19.6624C27.5964 22.5189 27.509 25.3873 27.483 28.2531C27.4624 30.0751 27.4419 31.897 27.4207 33.7742C27.4116 35.7564 27.4025 37.7386 27.3931 39.7809C27.3809 41.8057 27.3687 43.8306 27.3561 45.9167C27.3359 50.2104 27.3219 54.5041 27.3137 58.7978C27.2929 65.3756 27.2265 71.9521 27.159 78.5296C27.145 82.6937 27.1337 86.8579 27.1255 91.0221C27.0991 92.9957 27.0727 94.9692 27.0454 97.0026C27.0519 98.838 27.0583 100.673 27.0649 102.565C27.0571 104.179 27.0493 105.794 27.0412 107.457C28.0556 112.94 29.8239 114.818 34.2498 118.131C41.4059 119.128 41.4059 119.128 49.6355 118.984C51.8797 118.993 51.8797 118.993 54.1692 119.003C57.3288 119.007 60.4884 118.995 63.6478 118.968C68.483 118.934 73.3143 118.968 78.1493 119.009C81.2209 119.005 84.2925 118.997 87.364 118.984C91.557 118.973 91.5569 118.973 95.8346 118.962C102.564 118.737 102.564 118.737 106.345 115.44C109.869 110.789 109.963 108.356 109.935 102.565C109.941 100.729 109.948 98.8937 109.954 97.0026C109.928 95.029 109.901 93.0555 109.874 91.0221C109.87 88.9932 109.866 86.9643 109.862 84.8739C109.848 80.5878 109.818 76.3017 109.774 72.0157C109.707 65.4291 109.686 58.8436 109.673 52.2567C109.654 48.0981 109.632 43.9395 109.606 39.7809C109.597 37.7987 109.588 35.8165 109.579 33.7742C109.558 31.9522 109.538 30.1303 109.517 28.2531C109.495 25.8365 109.495 25.8365 109.472 23.371C109.569 19.598 109.569 19.598 107.031 17.5218C101.349 17.3057 95.7231 17.2227 90.0398 17.2375C88.3374 17.2354 86.6351 17.2334 84.8811 17.2313C81.2749 17.2298 77.6687 17.2338 74.0625 17.2427C68.5234 17.2541 62.9846 17.2428 57.4455 17.2291C53.9502 17.2305 50.455 17.2333 46.9597 17.2375C45.2919 17.2331 43.624 17.2288 41.9056 17.2243C34.2328 16.5405 34.2328 16.5405 27.8279 19.6624Z" fill="#9197AE"/>
<path d="M36.3906 23.9436C57.5828 23.9436 78.775 23.9436 100.609 23.9436C100.609 29.5949 100.609 35.2461 100.609 41.0686C79.4172 41.0686 58.225 41.0686 36.3906 41.0686C36.3906 35.4174 36.3906 29.7661 36.3906 23.9436Z" fill="#CAD9E3"/>
<path d="M36.3906 56.053C56.8764 56.053 77.3622 56.053 98.4688 56.053C97.7623 58.1722 97.0559 60.2914 96.3281 62.4749C77.2552 62.4749 58.1822 62.4749 38.5312 62.4749C37.8248 60.3556 37.1184 58.2364 36.3906 56.053Z" fill="#D0DDE7"/>
<path d="M38.5312 71.0374C57.6042 71.0374 76.6772 71.0374 96.3281 71.0374C96.3281 73.1566 96.3281 75.2758 96.3281 77.4592C77.2552 77.4592 58.1822 77.4592 38.5312 77.4592C38.5312 75.34 38.5312 73.2208 38.5312 71.0374Z" fill="#C7D7E2"/>
<path d="M36.3906 88.1624C47.6931 88.1624 58.9956 88.1624 70.6406 88.1624C70.6406 90.2816 70.6406 92.4008 70.6406 94.5842C60.0445 94.5842 49.4484 94.5842 38.5312 94.5842C37.8248 92.465 37.1184 90.3458 36.3906 88.1624Z" fill="#D0DDE7"/>
</svg>
