<svg width="33" height="33" viewBox="0 0 33 33" fill="none" xmlns="http://www.w3.org/2000/svg">
<path fill-rule="evenodd" clip-rule="evenodd" d="M9.625 4.125C12.1878 4.125 14.3411 5.87781 14.9517 8.25H26.125V11H14.9517C14.3411 13.3722 12.1878 15.125 9.625 15.125C6.58743 15.125 4.125 12.6626 4.125 9.625C4.125 6.58743 6.58743 4.125 9.625 4.125ZM9.625 12.375C11.1438 12.375 12.375 11.1438 12.375 9.625C12.375 8.10622 11.1438 6.875 9.625 6.875C8.10622 6.875 6.875 8.10622 6.875 9.625C6.875 11.1438 8.10622 12.375 9.625 12.375Z" fill="#DDC7A1"/>
<path fill-rule="evenodd" clip-rule="evenodd" d="M23.375 27.5C20.8123 27.5 18.6589 25.7472 18.0483 23.375H6.875V20.625H18.0483C18.6589 18.2528 20.8123 16.5 23.375 16.5C26.4125 16.5 28.875 18.9625 28.875 22C28.875 25.0375 26.4125 27.5 23.375 27.5ZM23.375 24.75C24.8938 24.75 26.125 23.5188 26.125 22C26.125 20.4812 24.8938 19.25 23.375 19.25C21.8562 19.25 20.625 20.4812 20.625 22C20.625 23.5188 21.8562 24.75 23.375 24.75Z" fill="#DDC7A1"/>
</svg>
